Patient4_TMGait_0pt4_03_right_13_GRF.mot
version=1
nRows=45
nColumns=19
inDegrees=no
endheader
time	F1x	F1y	F1z	M1x	M1y	M1z	F2x	F2y	F2z	M2x	M2y	M2z	EC1x	EC1y	EC1z	EC2x	EC2y	EC2z
16.13	-3.686	735.861	73.4461	-228.4704	-71.7861	759.2915	4.4046	27.7671	-8.5397	8.3521	6.05	35.3539	-0.0592	0.0182	-0.0073	-0.0462	0.0165	0.9585
16.1428	-3.6509	733.651	71.4571	-227.7684	-69.3818	751.9486	2.8935	19.3163	-5.8981	5.8399	4.2787	24.5561	-0.0592	0.0182	-0.0073	-0.0462	0.0165	0.9585
16.1556	-2.9606	731.4253	69.6143	-226.9203	-66.9079	744.6184	1.6101	12.2199	-3.6638	3.7263	2.7817	15.4989	-0.0592	0.0182	-0.0073	-0.0462	0.0165	0.9585
16.1684	-1.5998	729.7823	67.9268	-226.1419	-64.3904	738.0901	0.63919	6.8622	-1.9643	2.1297	1.6407	8.6707	-0.0592	0.0182	-0.0073	-0.0462	0.0165	0.9585
16.1811	0.32641	729.3055	66.4097	-225.6649	-61.8832	733.003	-0.033695	3.192	-0.7879	1.0378	0.85015	4.0128	-0.0592	0.0182	-0.0073	-0.0462	0.0165	0.9585
16.1939	2.6903	730.3934	64.983	-225.6688	-59.354	729.7154	-0.46166	0.95621	-0.061358	0.3752	0.36764	1.1955	-0.0592	0.0182	-0.0073	-0.0462	0.0165	0.9585
16.2067	5.3357	733.1721	63.6372	-226.2346	-56.8425	728.2996	-0.70483	-0.19778	0.31726	0.037241	0.12748	-0.24283	-0.0592	0.0182	-0.0073	-0.0462	0.0165	0.9585
16.2195	8.1391	737.4808	62.3365	-227.3439	-54.3523	728.5291	-0.85655	-0.62448	0.44727	-0.084042	0.073367	-0.75004	-0.0592	0.0182	-0.0073	-0.0462	0.0165	0.9585
16.2323	10.9909	742.9047	61.1171	-228.8827	-51.9444	729.9462	-0.95734	-0.65319	0.41404	-0.090002	0.14867	-0.75638	-0.0592	0.0182	-0.0073	-0.0462	0.0165	0.9585
16.2451	13.8236	748.9123	59.9847	-230.6849	-49.638	731.9845	-1.0689	-0.53825	0.27527	-0.063094	0.32453	-0.57113	-0.0592	0.0182	-0.0073	-0.0462	0.0165	0.9585
16.2579	16.609	754.9303	58.9856	-232.5605	-47.4812	734.0458	-1.2118	-0.50832	0.080854	-0.077123	0.56388	-0.48007	-0.0592	0.0182	-0.0073	-0.0462	0.0165	0.9585
16.2706	19.3492	760.4054	58.1287	-234.3226	-45.4809	735.5575	-1.4012	-0.69707	-0.14171	-0.18251	0.84552	-0.64551	-0.0592	0.0182	-0.0073	-0.0462	0.0165	0.9585
16.2834	22.0804	764.8556	57.4367	-235.8092	-43.6491	736.0196	-1.6084	-1.2055	-0.36186	-0.41726	1.1307	-1.1957	-0.0592	0.0182	-0.0073	-0.0462	0.0165	0.9585
16.2962	24.8369	767.9344	56.8973	-236.904	-41.9684	735.0871	-1.8021	-2.0905	-0.5564	-0.80094	1.3811	-2.1896	-0.0592	0.0182	-0.0073	-0.0462	0.0165	0.9585
16.309	27.6776	769.4461	56.502	-237.5412	-40.4223	732.5544	-1.8891	-3.3131	-0.6997	-1.3177	1.5341	-3.5735	-0.0592	0.0182	-0.0073	-0.0462	0.0165	0.9585
16.3218	30.6528	769.3729	56.2299	-237.7136	-38.9783	728.4078	-1.7298	-4.7356	-0.75692	-1.9107	1.4971	-5.1825	-0.0592	0.0182	-0.0073	-0.0462	0.0165	0.9585
16.3346	33.8298	767.8324	56.0756	-237.4539	-37.6105	722.7878	-1.1715	-6.072	-0.67422	-2.4608	1.149	-6.6801	-0.0592	0.0182	-0.0073	-0.0462	0.0165	0.9585
16.3474	37.2171	765.0674	56.0584	-236.8231	-36.3289	715.9833	0.015412	-6.8129	-0.38752	-2.7604	0.33359	-7.4944	-0.0592	0.0182	-0.0073	-0.0462	0.0165	0.9585
16.3601	40.7974	761.4113	56.2282	-235.8992	-35.1871	708.3797	2.0448	-6.1857	0.18234	-2.4964	-1.1187	-6.7548	-0.0592	0.0182	-0.0073	-0.0462	0.0165	0.9585
16.3729	44.5007	757.1723	56.6495	-234.7447	-34.2693	700.3628	5.119	-3.1664	1.1197	-1.2483	-3.3728	-3.3356	-0.0592	0.0182	-0.0073	-0.0462	0.0165	0.9585
16.3857	48.2013	752.4779	57.3552	-233.3634	-33.6504	692.1839	9.3336	3.5516	2.4843	1.5136	-6.5221	4.2026	-0.0592	0.0182	-0.0073	-0.0462	0.0165	0.9585
16.3985	51.7079	747.1487	58.3173	-231.6661	-33.3673	683.8223	14.5674	15.3794	4.288	6.3656	-10.5204	17.4056	-0.0592	0.0182	-0.0073	-0.0462	0.0165	0.9585
16.4113	54.7593	740.6508	59.3982	-229.4587	-33.385	674.967	20.3121	33.5923	6.4386	13.8282	-15.0522	37.68	-0.0592	0.0182	-0.0073	-0.0462	0.0165	0.9585
16.4241	57.0376	732.0202	60.3713	-226.4257	-33.605	664.919	25.5145	58.9066	8.672	24.1907	-19.3924	65.8085	-0.0592	0.0182	-0.0073	-0.0462	0.0165	0.9585
16.4369	58.1933	719.99	60.9224	-222.1721	-33.8652	652.6805	28.5606	90.9736	10.4637	37.3025	-22.3292	101.4053	-0.0592	0.0182	-0.0073	-0.0462	0.0165	0.9585
16.4496	57.9509	703.2321	60.7324	-216.3072	-33.9763	637.133	28.0876	128.3282	11.1865	52.5219	-22.6365	142.8995	-0.0592	0.0182	-0.0073	-0.0462	0.0165	0.9585
16.4624	56.1859	680.7168	59.5222	-208.5613	-33.7355	617.3467	23.8493	168.3427	10.2686	68.7315	-19.6587	187.425	-0.0592	0.0182	-0.0073	-0.0462	0.0165	0.9585
16.4752	53.0301	652.0607	57.1438	-198.8962	-32.9637	592.8439	17.0183	208.0997	7.7684	84.7355	-13.9671	231.6562	-0.0592	0.0182	-0.0073	-0.0462	0.0165	0.9585
16.488	48.9034	617.6542	53.6035	-187.5328	-31.515	563.6988	8.9885	245.9406	3.7601	99.8486	-6.2401	273.6263	-0.0592	0.0182	-0.0073	-0.0462	0.0165	0.9585
16.5008	44.3827	578.44	49.0219	-174.8624	-29.2833	530.3807	0.88296	282.0358	-1.2492	114.1506	2.529	313.3674	-0.0592	0.0182	-0.0073	-0.0462	0.0165	0.9585
16.5136	39.9705	535.2982	43.5966	-161.2354	-26.2535	493.3027	-6.6252	317.3867	-6.8351	128.0681	11.6001	351.9333	-0.0592	0.0182	-0.0073	-0.0462	0.0165	0.9585
16.5264	35.8109	488.5568	37.5709	-146.7871	-22.5592	452.5004	-13.1648	353.0522	-12.474	142.0695	20.2771	390.4428	-0.0592	0.0182	-0.0073	-0.0462	0.0165	0.9585
16.5391	31.7335	438.2444	31.2763	-131.5044	-18.514	407.8838	-18.5306	389.9655	-17.9484	156.5583	28.253	429.87	-0.0592	0.0182	-0.0073	-0.0462	0.0165	0.9585
16.5519	27.4255	384.7725	25.1068	-115.4457	-14.5422	359.8308	-22.6241	428.9931	-23.2254	171.8958	35.4746	471.1001	-0.0592	0.0182	-0.0073	-0.0462	0.0165	0.9585
16.5647	22.6158	329.2468	19.4871	-98.8602	-11.0997	309.3999	-25.479	470.7902	-28.627	188.3293	42.3021	514.8326	-0.0592	0.0182	-0.0073	-0.0462	0.0165	0.9585
16.5775	17.1681	273.4955	14.7491	-82.2199	-8.5338	258.3302	-27.3113	515.4969	-34.4255	205.8972	49.1193	561.2531	-0.0592	0.0182	-0.0073	-0.0462	0.0165	0.9585
16.5903	11.1315	219.8175	11.0429	-66.1636	-6.9892	208.8072	-28.532	562.5785	-40.8259	224.3747	56.3016	609.852	-0.0592	0.0182	-0.0073	-0.0462	0.0165	0.9585
16.6031	4.8409	170.5743	8.3066	-51.3851	-6.3528	163.0846	-29.5536	610.9633	-47.6595	243.3399	63.8359	659.5385	-0.0592	0.0182	-0.0073	-0.0462	0.0165	0.9585
16.6159	-1.1203	127.6299	6.3525	-38.4599	-6.3177	122.9577	-30.5946	659.0897	-54.563	262.1881	71.4229	708.6853	-0.0592	0.0182	-0.0073	-0.0462	0.0165	0.9585
16.6286	-6.0817	91.9257	4.9565	-27.6918	-6.5001	89.3542	-31.7117	704.9595	-60.9742	280.1555	78.4881	755.1956	-0.0592	0.0182	-0.0073	-0.0462	0.0165	0.9585
16.6414	-9.5724	63.4322	3.9235	-19.0878	-6.5825	62.3139	-32.8213	746.2889	-66.4239	296.3577	84.4951	796.6739	-0.0592	0.0182	-0.0073	-0.0462	0.0165	0.9585
16.6542	-11.4137	41.5002	3.1003	-12.4632	-6.3713	41.3103	-33.802	780.7709	-70.5708	309.8886	89.0318	830.7147	-0.0592	0.0182	-0.0073	-0.0462	0.0165	0.9585
16.667	-11.6558	25.1959	2.3909	-7.5428	-5.7884	25.5486	-34.5442	806.4181	-73.3298	319.9543	91.9607	855.276	-0.0592	0.0182	-0.0073	-0.0462	0.0165	0.9585
16.6798	-10.5059	13.5461	1.7458	-4.0336	-4.8469	14.1744	-34.9374	821.9704	-74.7306	326.0407	93.2761	869.0906	-0.0592	0.0182	-0.0073	-0.0462	0.0165	0.9585
16.6926	-8.4153	5.6791	1.1695	-1.6707	-3.6853	6.3987	-34.9053	827.1209	-74.9185	328.0091	93.1007	871.9081	-0.0592	0.0182	-0.0073	-0.0462	0.0165	0.9585
